<?xml version="1.0" encoding="UTF-8" standalone="no"?>
<!-- Created with Inkscape (http://www.inkscape.org/) -->

<svg
   width="250mm"
   height="250mm"
   viewBox="0 0 250 250"
   version="1.1"
   id="svg1"
   xml:space="preserve"
   xmlns="http://www.w3.org/2000/svg"
   xmlns:svg="http://www.w3.org/2000/svg"><defs
     id="defs1" /><g
     id="layer1"
     transform="translate(17.335985,-93.942892)"><g
       id="g4367"
       transform="translate(10.904126,11.200221)"><g
         id="g32675"
         transform="translate(-519.75272,-22.422148)"><g
           id="g32703"
           transform="matrix(0.90663394,0,0,0.90663394,60.678299,-7.025096)"
           style="display:inline"><g
             id="g32740"
             transform="translate(1.9490028e-7,0.0078189)"><g
               id="g32739"><path
                 id="path32739"
                 style="display:inline;fill:#3943c4;fill-opacity:1"
                 d="m 611.0833,147.86096 c -3.28877,-5.9e-4 -4.12013,0.0883 -5.82122,0.62128 -2.49654,0.78223 -2.78975,0.93347 -9.74098,5.03065 -3.15527,1.85977 -8.35606,4.90798 -11.55751,6.77366 -3.20146,1.86568 -10.94065,6.43066 -17.19804,10.14396 -6.2574,3.7133 -13.75869,8.14822 -16.6691,9.85554 -6.21428,3.64543 -8.08607,5.09717 -9.94105,7.71014 -1.62296,2.28614 -2.48949,4.12594 -3.21241,6.82096 -0.51697,1.92728 -0.53424,2.86787 -0.59734,32.67646 -0.0357,16.88041 0.0238,32.53721 0.13223,34.79279 0.17371,3.61484 0.29107,4.35503 0.98892,6.24585 0.98678,2.67368 2.30675,4.7578 4.3957,6.93896 1.99131,2.07921 2.63163,2.52466 8.25105,5.74313 2.46446,1.4115 7.81464,4.55906 11.88923,6.99424 4.07458,2.43519 10.20624,6.07007 13.62598,8.07777 3.41974,2.0077 10.65917,6.32223 16.08715,9.58765 9.63852,5.79843 11.63236,6.84904 14.42793,7.60241 2.13222,0.57461 7.0852,0.50939 9.56941,-0.12596 2.83644,-0.72544 4.03591,-1.31448 9.80995,-4.8209 2.75374,-1.67227 7.6259,-4.58773 10.82736,-6.47841 3.20145,-1.89067 8.38094,-4.96499 11.50964,-6.8318 11.24074,-6.70704 16.9012,-10.05225 22.99874,-13.59234 4.82734,-2.80262 6.62756,-4.00144 8.14161,-5.4228 2.37085,-2.22573 4.07075,-4.7249 5.18968,-7.62806 l 0.84414,-2.18873 V 230.93287 195.4789 l -0.74325,-2.11691 c -0.96067,-2.73719 -2.46829,-5.26876 -4.3444,-7.29519 -1.63327,-1.76412 -3.22527,-2.92436 -6.68645,-4.87277 -1.23693,-0.6963 -8.02337,-4.68551 -15.08113,-8.86492 -12.67042,-7.50309 -27.3333,-16.14576 -35.05727,-20.66353 -2.18281,-1.27673 -4.92152,-2.65479 -6.08569,-3.06251 -1.94284,-0.68039 -2.43148,-0.74148 -5.95288,-0.74211 z m -0.1425,7.80988 c 1.24269,-0.002 2.48141,0.15563 3.49228,0.47252 0.88879,0.27862 4.97195,2.50986 9.61444,5.25351 4.43839,2.62303 12.17757,7.18757 17.19804,10.14339 5.02047,2.95581 10.85475,6.40057 12.9648,7.65485 2.11005,1.25427 6.97584,4.12159 10.81311,6.37182 7.48359,4.38847 9.48799,5.91987 10.72762,8.19747 1.53218,2.8152 1.47169,1.29198 1.47169,36.904 0,26.95431 -0.065,33.05151 -0.36308,34.17095 -0.82845,3.11142 -3.002,5.8934 -5.84858,7.48613 -0.87312,0.48853 -2.59962,1.47987 -3.83654,2.20241 -1.23693,0.72255 -3.32028,1.93986 -4.62996,2.70513 -3.89759,2.27743 -11.19676,6.62108 -29.34149,17.4608 -9.44383,5.64177 -17.82146,10.4863 -18.61673,10.76581 -1.44372,0.5074 -4.22243,0.82551 -5.22331,0.59791 -0.29104,-0.0662 -1.14624,-0.24485 -1.90088,-0.39728 -0.78666,-0.15891 -2.25448,-0.81465 -3.43984,-1.53667 -14.59548,-8.89027 -41.30986,-24.80533 -51.80901,-30.86505 -3.85667,-2.22593 -5.27568,-3.58126 -6.63971,-6.34104 l -1.03338,-2.09012 -0.0815,-33.21908 c -0.0601,-24.49803 -4.4e-4,-33.60107 0.22628,-34.67424 0.40959,-1.93879 1.62019,-4.17365 2.97987,-5.50032 1.19686,-1.1678 12.6891,-8.14173 31.27145,-18.97695 2.03729,-1.18792 6.62087,-3.86107 10.18613,-5.94035 3.56526,-2.07928 8.78363,-5.14997 11.59627,-6.82381 2.81684,-1.67634 5.82866,-3.26579 6.70469,-3.53844 1.02815,-0.32001 2.27466,-0.48145 3.51735,-0.48335 z" /><path
                 id="path32737"
                 style="display:inline;fill:#3943c4;fill-opacity:1"
                 d="m 611.19159,183.22943 c -6.45124,-0.0731 -6.99956,-0.0421 -8.37359,0.47195 -1.92863,0.7216 -3.70477,2.31786 -4.58778,4.12267 -0.6077,1.24208 -0.73118,1.89671 -0.84528,4.48233 -0.15337,3.47541 0.18863,3.12637 -3.49969,3.57607 -8.7982,1.07274 -22.57894,5.08279 -26.30862,7.65598 -2.45707,1.69519 -3.89682,4.44509 -3.95282,7.55055 -0.027,1.49722 0.0804,2.03495 0.56029,2.80658 0.53145,0.85456 1.94028,1.78987 3.31501,2.2007 0.5954,0.17794 0.82383,0.7679 0.61672,1.5931 l -0.16244,0.64579 -5.35669,0.0809 c -6.09669,0.0925 -6.59307,0.22448 -8.59303,2.27822 -1.37375,1.41069 -1.92255,3.08526 -1.92255,5.86568 0,7.28105 4.30101,11.48042 13.76847,13.44243 l 2.23888,0.4634 0.1482,10.57942 c 0.13621,9.732 0.19116,10.70844 0.68968,12.18905 2.1304,6.32734 7.21059,11.19038 13.37803,12.80634 1.82826,0.47899 3.22876,0.50455 28.2494,0.51355 29.00795,0.011 28.15426,0.0551 31.79356,-1.64326 3.96758,-1.85159 7.20499,-4.9853 9.03876,-8.74864 1.80145,-3.697 1.83937,-3.98415 2.00918,-15.38151 l 0.15333,-10.31495 2.23774,-0.4634 c 6.31687,-1.309 9.94576,-3.35253 12.01521,-6.76624 1.30424,-2.15145 1.83082,-4.41774 1.70367,-7.33053 -0.0883,-2.02281 -0.22158,-2.5972 -0.88632,-3.81603 -0.74495,-1.36587 -2.11795,-2.63102 -3.56067,-3.28138 -0.38317,-0.17272 -2.94369,-0.3563 -6.08569,-0.4366 l -5.42394,-0.13851 v -1.04762 c 0,-0.97752 0.06,-1.05995 0.8943,-1.23059 1.42571,-0.29158 2.14581,-0.79785 2.85503,-2.00805 0.79102,-1.34977 0.88509,-3.74119 0.2223,-5.63939 -0.57472,-1.64597 -2.09149,-3.7828 -3.25802,-4.58892 -4.23446,-2.92618 -18.80658,-7.11972 -27.76264,-7.98943 -1.05262,-0.10221 -2.02236,-0.31943 -2.1551,-0.48277 -0.13274,-0.16334 -0.28902,-1.66603 -0.34712,-3.33952 -0.087,-2.50666 -0.21022,-3.24254 -0.69994,-4.17796 -0.80057,-1.52919 -2.32088,-3.00273 -3.90038,-3.78012 -1.26242,-0.62131 -1.51498,-0.64352 -8.20545,-0.71932 z m -0.62014,4.71033 c 2.97361,8.2e-4 5.82973,0.11897 6.34732,0.26276 0.5176,0.14379 1.25497,0.58953 1.63869,0.99063 0.61059,0.63827 0.71752,1.0189 0.85554,3.04883 0.12018,1.76752 0.0765,2.34894 -0.18353,2.44294 -0.39209,0.14177 -16.48172,0.31017 -16.87942,0.17669 -0.14452,-0.0485 -0.26277,-0.98334 -0.26277,-2.07701 0,-2.55244 0.46966,-3.5841 1.96017,-4.30564 1.01394,-0.49089 1.61744,-0.5402 6.524,-0.5392 z m 0.23142,11.77467 c 4.50137,-9.7e-4 9.00801,0.16034 11.78949,0.48391 9.16719,1.06643 16.61305,2.63658 22.93832,4.83687 5.45032,1.89594 7.28124,3.13316 7.54484,5.09848 l 0.14592,1.08752 h -42.35246 c -23.29391,0 -42.41557,-0.10205 -42.49267,-0.22685 -0.19136,-0.30963 0.22234,-1.6776 0.75181,-2.48569 1.77214,-2.70462 16.08508,-6.67808 29.9166,-8.3052 2.76096,-0.3247 7.25678,-0.48807 11.75815,-0.48904 z m 0.17612,16.33509 37.54238,0.0667 0.0678,21.828 c 0.0677,21.78749 0.0672,21.83174 -0.51127,23.78076 -0.7267,2.44834 -2.04563,4.49946 -4.12952,6.42312 -1.75567,1.62069 -3.63773,2.63721 -6.04522,3.26428 -1.31565,0.34265 -5.16752,0.39722 -27.33858,0.38702 l -25.80761,-0.012 -1.90601,-0.61729 c -2.54109,-0.82303 -4.05122,-1.74451 -5.91698,-3.61026 -1.56082,-1.56083 -2.49308,-3.09688 -3.51678,-5.79671 -0.54336,-1.43301 -0.55545,-1.88242 -0.63895,-23.31281 -0.0721,-18.51478 -0.0281,-21.89842 0.2867,-22.15973 0.27993,-0.23234 9.6334,-0.2916 37.91401,-0.2411 z m 52.17266,7.06663 0.82078,0.69082 c 0.77794,0.65456 0.82063,0.79023 0.81963,2.58543 -0.002,2.64795 -0.37517,3.73881 -1.8,5.26207 -1.46054,1.56143 -2.45215,2.10262 -5.38918,2.9411 -3.16065,0.90233 -3.91889,1.01873 -4.06966,0.62584 -0.0702,-0.18281 -0.0952,-2.94867 -0.0559,-6.14668 l 0.0713,-5.81494 4.80152,-0.0718 z m -104.76141,0.0114 h 4.75479 c 4.09145,0 4.77674,0.0588 4.91494,0.41894 0.0883,0.23018 0.16074,2.89418 0.16074,5.92039 0,4.08296 -0.0852,5.57117 -0.33059,5.76935 -0.22835,0.18439 -1.10304,0.0708 -2.82483,-0.3665 -6.03993,-1.53402 -8.20321,-3.67353 -8.21571,-8.12451 -0.005,-1.93971 0.0428,-2.1198 0.7672,-2.84421 z" /><path
                 style="display:inline;fill:#3943c4;fill-opacity:1"
                 d="m 591.21901,253.31059 c -0.77486,-0.77487 -0.8992,-1.24421 -0.61264,-2.3125 0.0905,-0.33735 2.5333,-2.43372 5.94952,-5.10579 3.18779,-2.49339 5.79598,-4.67856 5.79598,-4.85593 0,-0.17737 -2.56176,-2.32625 -5.6928,-4.77529 -3.13104,-2.44903 -5.80994,-4.67168 -5.95312,-4.93921 -0.7423,-1.38699 0.42472,-3.43932 1.946,-3.42226 1.09819,0.0123 1.17554,0.0635 6.40167,4.23573 2.46888,1.97101 5.53256,4.39339 6.80818,5.38306 1.27561,0.98967 2.43647,2.01834 2.57968,2.28593 0.35093,0.65571 0.31317,1.84786 -0.081,2.55679 -0.27305,0.49113 -4.43149,3.80757 -12.96976,10.34362 -2.14893,1.64501 -3.00783,1.76974 -4.17173,0.60585 z"
                 id="path32731" /><path
                 style="display:inline;fill:#3943c4;fill-opacity:1"
                 d="m 611.34157,255.0035 c -0.86556,-0.92135 -0.81917,-2.4119 0.0997,-3.20225 0.86664,-0.74545 3.18497,-0.92692 10.4898,-0.82106 5.78423,0.0838 6.28698,0.18995 6.86034,1.44834 0.43863,0.96268 0.3424,1.54475 -0.40157,2.4289 l -0.68497,0.81405 h -7.86786 -7.86786 z"
                 id="path32730" /><path
                 style="display:inline;fill:#1f293e;fill-opacity:1"
                 d="m 596.51068,361.26064 -0.7734,-0.7734 0.004,-8.68546 c 0.003,-6.72209 0.0922,-9.05988 0.39444,-10.34182 1.47437,-6.2533 6.88652,-10.37435 13.62457,-10.37435 6.43406,0 11.39026,3.62482 13.37456,9.78176 0.39614,1.22915 0.48673,2.75193 0.58316,9.80269 0.12757,9.3284 0.0154,10.30873 -1.2543,10.96533 -1.05736,0.54678 -2.46524,0.50008 -3.21525,-0.10665 l -0.62463,-0.5053 -0.14279,-8.95356 c -0.13724,-8.60571 -0.16698,-9.01462 -0.76551,-10.52541 -0.83311,-2.10293 -2.59513,-3.85361 -4.66359,-4.63359 -2.10071,-0.79215 -5.19869,-0.6817 -7.13215,0.25428 -1.8384,0.88995 -3.38289,2.53453 -4.12122,4.38831 -0.59785,1.50104 -0.62799,1.91176 -0.76215,10.38366 l -0.13967,8.82081 -0.74236,0.63805 c -1.08961,0.9365 -2.62895,0.87932 -3.64362,-0.13535 z"
                 id="path32729" /><path
                 style="display:inline;fill:#1f293e;fill-opacity:1"
                 d="m 536.17089,361.24584 -0.78818,-0.78818 0.0885,-9.8613 c 0.0837,-9.32825 0.11995,-9.95426 0.66963,-11.58109 1.16021,-3.43369 3.65982,-6.05818 6.83172,-7.17301 4.25441,-1.49531 9.57964,-0.56155 10.25648,1.79843 0.30098,1.04947 -0.42584,2.674 -1.44911,3.23893 -0.62156,0.34314 -0.87347,0.33217 -2.30163,-0.10024 -3.56336,-1.0789 -6.81472,0.54382 -8.16117,4.07316 -0.39793,1.04307 -0.47228,2.46029 -0.55194,10.52143 l -0.0921,9.316 -0.79866,0.67203 c -1.15901,0.97524 -2.65927,0.92819 -3.70362,-0.11616 z"
                 id="path32728" /><path
                 style="display:inline;fill:#3943c4;fill-opacity:1"
                 d="m 719.16541,361.92787 c -2.13615,-0.52598 -3.33901,-1.22411 -5.03863,-2.92439 -1.11356,-1.11399 -1.79529,-2.08164 -2.24544,-3.18716 -0.63063,-1.5488 -0.64844,-1.79045 -0.73028,-9.91191 -0.0544,-5.39577 -0.18337,-8.44426 -0.36665,-8.6651 -0.17691,-0.21317 -0.91889,-0.3407 -1.98218,-0.3407 -1.45154,0 -1.79414,-0.0947 -2.34885,-0.64943 -0.79324,-0.79324 -0.86631,-2.19911 -0.15966,-3.07179 0.3915,-0.48349 0.87798,-0.64632 2.42469,-0.81158 1.08645,-0.11609 2.03011,-0.35681 2.15201,-0.54896 0.1194,-0.18821 0.21891,-1.77996 0.22114,-3.53723 0.004,-2.97412 0.0452,-3.2324 0.59937,-3.73559 0.85468,-0.77608 1.89082,-0.94842 2.97601,-0.49499 1.25592,0.52475 1.45576,1.20142 1.45576,4.92929 0,1.73678 0.0893,3.1687 0.19844,3.18205 0.10914,0.0134 1.8692,0.0548 3.91125,0.0922 2.11779,0.0388 3.9529,0.19643 4.27165,0.36702 0.67123,0.35923 1.1604,1.62727 0.95479,2.47502 -0.0818,0.33734 -0.3912,0.88124 -0.68752,1.20867 -0.50973,0.56322 -0.73948,0.59553 -4.26296,0.59936 -2.04831,0.002 -3.88122,0.10361 -4.07313,0.2253 -0.27912,0.17699 -0.33206,1.77752 -0.26458,7.9996 0.0807,7.44542 0.1095,7.82537 0.67198,8.87723 0.74109,1.38585 2.27708,2.66676 3.63939,3.03499 0.63938,0.17283 1.90644,0.21319 3.23032,0.10291 2.09512,-0.17452 2.20398,-0.15578 2.85059,0.49083 0.81951,0.81951 0.9189,2.44981 0.20324,3.33362 -0.92075,1.13708 -4.86155,1.63519 -7.60075,0.96073 z"
                 id="path32727" /><path
                 id="path32726"
                 style="display:inline;fill:#3943c4;fill-opacity:1"
                 d="m 684.72031,331.10137 c -3.88722,0.11925 -7.69175,1.73292 -10.52299,4.58151 -2.16338,2.17664 -3.37789,4.29783 -4.11869,7.1943 -1.56307,6.11155 0.57409,12.50509 5.40001,16.15612 1.89589,1.43433 3.90319,2.38407 6.11589,2.89323 2.20029,0.5063 6.4192,0.31128 8.40723,-0.38873 5.35967,-1.88723 9.43929,-6.30628 10.4848,-11.35688 0.40974,-1.97933 0.3601,-5.49427 -0.10259,-7.27068 -1.47259,-5.65365 -6.02104,-10.06233 -11.78209,-11.42014 -1.28108,-0.30193 -2.58583,-0.42847 -3.88157,-0.38873 z m 0.59848,5.14864 c 2.77156,0.005 5.53565,1.0393 7.51406,3.18563 4.89437,5.30976 3.19597,13.9697 -3.32527,16.95523 -2.93373,1.3431 -7.19389,1.02813 -9.94104,-0.73471 -4.86784,-3.12369 -6.32329,-9.4745 -3.32014,-14.48778 1.93318,-3.22713 5.50897,-4.92435 9.07239,-4.91837 z" /><path
                 id="path32724"
                 style="display:inline;fill:#1f293e;fill-opacity:1"
                 d="m 573.21203,331.09396 c -1.52939,0.002 -3.06639,0.13177 -4.04857,0.38759 -8.09516,2.10853 -13.13142,10.29027 -11.39108,18.50615 0.6596,3.11383 1.97156,5.48909 4.30108,7.78879 2.16611,2.13838 3.94032,3.19663 6.76739,4.03547 2.24683,0.66666 7.28712,0.52202 9.52268,-0.27359 2.46253,-0.87639 4.40905,-2.12839 6.31995,-4.06397 4.2167,-4.27117 5.52816,-10.67426 3.36859,-16.44623 -1.66148,-4.44069 -6.00734,-8.27431 -10.83535,-9.55745 -0.95305,-0.25331 -2.47529,-0.37875 -4.00469,-0.37676 z m -0.88974,5.30425 c 1.34952,-0.0829 2.75086,0.0291 3.94085,0.35282 4.9055,1.33438 8.18128,6.46052 7.31343,11.44408 -0.81519,4.68113 -4.17377,8.05211 -8.76517,8.79709 -2.01618,0.32715 -2.08111,0.32604 -3.94484,-0.0884 -5.78244,-1.28568 -9.34127,-7.10344 -7.82641,-12.7938 0.86165,-3.23665 2.75542,-5.54678 5.65193,-6.89392 0.98301,-0.45718 2.2807,-0.73502 3.63021,-0.81792 z" /><path
                 style="display:inline;fill:#1f293e;fill-opacity:1"
                 d="m 510.7005,361.87684 c -2.75205,-0.6659 -4.8674,-1.90162 -7.1991,-4.20549 -2.31814,-2.29047 -3.4036,-4.15477 -4.1833,-7.18493 -0.88878,-3.45403 -0.31287,-8.16302 1.38664,-11.33803 1.11961,-2.09167 4.33399,-5.12851 6.66171,-6.29379 5.9929,-3.00008 13.55029,-2.03444 18.15474,2.31971 1.83156,1.732 1.88508,2.42264 0.30006,3.87149 -1.53985,1.40757 -2.20023,1.36033 -4.24829,-0.3039 -2.24567,-1.82479 -4.4319,-2.49568 -7.50749,-2.3038 -1.78754,0.11152 -2.57007,0.30488 -3.91656,0.96776 -1.91133,0.94094 -3.97704,3.01412 -4.84667,4.86417 -2.94936,6.2745 0.98809,13.64663 7.8816,14.7568 3.21905,0.51841 6.25582,-0.3918 8.77529,-2.63022 1.59341,-1.41566 2.26761,-1.41598 3.80177,-0.002 1.64321,1.51465 1.59128,2.07887 -0.36243,3.93796 -1.76434,1.67889 -4.18795,2.97118 -6.66893,3.55596 -2.10816,0.49689 -5.9499,0.49122 -8.02904,-0.0118 z"
                 id="path32722" /><path
                 id="path32721"
                 style="display:inline;fill:#3943c4;fill-opacity:1"
                 d="m 648.14234,331.18858 c -6.51839,-0.25466 -12.7659,4.27163 -14.73874,10.45608 -1.239,3.62052 -0.726,7.51536 -0.88107,11.26868 0.0452,6.88676 -0.14155,13.78303 0.20741,20.66277 0.26382,2.05773 3.41802,2.35504 4.51497,0.76426 0.57509,-0.67924 0.31739,-1.41148 0.43765,-2.13371 0.0464,-4.58285 -0.0179,-9.17023 0.17222,-13.74904 1.7299,1.02555 3.25091,2.52094 5.28925,2.98794 5.07496,1.78096 11.04957,0.6304 14.98733,-3.0676 3.18573,-2.77309 5.14927,-6.88522 5.06788,-11.13225 0.21471,-4.12533 -1.26393,-8.2714 -4.12998,-11.26033 -2.80287,-2.97997 -6.82099,-4.8003 -10.92692,-4.7968 z m 0.2468,5.23813 c 4.43883,-0.16709 8.42944,3.41244 9.36671,7.64731 1.29906,4.46848 -0.84032,9.53043 -4.86931,11.81537 -2.14896,1.47517 -4.90852,1.46194 -7.38521,1.10291 -4.5922,-1.11873 -7.97832,-5.71586 -7.71174,-10.43517 -0.0824,-4.26517 2.69535,-8.4698 6.81966,-9.75836 1.20284,-0.47611 2.51256,-0.42823 3.77989,-0.37206 z" /><g
                 id="g32721"><path
                   id="path32696"
                   style="display:none;fill:#3943c4;fill-opacity:1"
                   d="m 611.10699,148.25456 c -3.98256,0.006 -6.95108,0.84372 -10.72286,3.02514 -7.90699,4.57301 -37.35018,21.86472 -39.43945,23.16241 -1.57183,0.9763 -9.84966,5.88277 -14.12059,8.37003 -5.6881,3.31258 -9.00767,8.26387 -9.80508,14.6234 -0.16949,1.35166 -0.2437,14.0627 -0.20361,34.87746 0.0586,30.43236 0.0961,32.86336 0.53072,34.33847 1.16834,3.96519 3.55267,7.62607 6.53293,10.03039 0.94589,0.7631 3.86292,2.61 6.48229,4.10466 2.61938,1.49467 7.91766,4.59749 11.77396,6.89519 3.8563,2.29769 8.73787,5.19228 10.84792,6.43216 2.11005,1.23989 4.55083,2.68356 5.42396,3.20808 0.87312,0.52452 4.50453,2.68946 8.06979,4.81107 3.56526,2.12161 7.19667,4.30522 8.06979,4.85242 6.07272,3.80582 8.72051,5.16755 11.64167,5.98723 0.93695,0.26288 2.44221,0.34649 5.15937,0.28629 3.56596,-0.079 3.99818,-0.14535 6.13451,-0.94155 1.26411,-0.47113 2.81193,-1.18604 3.43958,-1.58853 1.44719,-0.92803 5.00417,-3.06342 13.18008,-7.91321 8.21567,-4.87339 24.71011,-14.69609 28.17812,-16.78037 1.45521,-0.87458 3.77693,-2.24479 5.15938,-3.04529 9.13984,-5.29235 10.20195,-5.98328 11.90625,-7.74268 2.61671,-2.70132 4.41567,-6.05187 5.07359,-9.44852 0.20806,-1.07416 0.30172,-11.47516 0.31522,-34.99838 0.0215,-37.51789 0.12736,-35.3344 -1.91203,-39.55521 -1.83676,-3.80145 -4.22885,-6.33293 -8.14626,-8.6217 -4.76209,-2.78228 -14.75958,-8.65728 -18.08469,-10.62726 -1.96453,-1.1639 -4.52437,-2.67859 -5.68854,-3.3662 -9.88439,-5.8382 -15.83047,-9.34497 -18.52083,-10.92285 -1.74625,-1.02417 -4.72282,-2.78094 -6.61459,-3.90363 -8.06257,-4.78485 -10.10049,-5.55602 -14.6606,-5.54902 z m 0.0145,6.87917 c 2.24707,-0.005 4.91908,0.80331 6.97322,2.10943 0.87312,0.55518 3.19484,1.95422 5.15937,3.10885 15.8247,9.3008 21.09808,12.41131 41.14271,24.26829 8.88995,5.25866 8.98023,5.31817 10.21695,6.72155 1.53818,1.74546 2.23813,3.0749 2.73471,5.19503 0.39217,1.6743 0.42632,5.03938 0.35554,35.0573 -0.0889,37.67993 0.16332,33.75049 -2.40709,37.50882 -0.93717,1.37028 -1.74077,2.19397 -2.79983,2.86856 -1.87698,1.19558 -5.51848,3.34739 -7.42797,4.38939 -0.80629,0.43998 -2.18043,1.24439 -3.05356,1.78749 -0.87312,0.54311 -2.42094,1.46755 -3.43958,2.05414 -2.12993,1.22652 -26.91394,15.96541 -32.27917,19.19624 -7.52909,4.53387 -9.86449,5.87085 -11.20397,6.41512 -2.59443,1.05422 -6.06335,1.05443 -9.03665,5.1e-4 -0.65485,-0.23211 -2.26219,-1.11394 -3.57188,-1.95957 -1.30969,-0.84563 -3.05513,-1.94229 -3.87883,-2.43706 -0.82371,-0.49477 -2.37152,-1.4309 -3.43959,-2.08049 -2.16289,-1.31547 -14.43889,-8.64805 -23.37325,-13.96091 -5.72549,-3.40469 -12.68382,-7.50558 -19.70267,-11.61272 -3.90487,-2.28497 -5.23465,-3.44418 -6.60115,-5.75418 -1.68616,-2.8504 -1.60972,-1.0945 -1.60972,-37.14605 0,-37.00348 -0.10723,-34.92628 1.96009,-37.99561 1.30991,-1.94482 2.86143,-3.19361 6.78408,-5.4591 1.63778,-0.94588 3.64451,-2.12168 4.45916,-2.61328 1.86977,-1.12831 14.77087,-8.76261 18.81125,-11.13162 1.67349,-0.98123 4.82865,-2.83246 7.01146,-4.11344 2.18282,-1.28099 5.04032,-2.9518 6.35,-3.71295 1.30969,-0.76116 5.62,-3.30335 9.57875,-5.64927 7.7748,-4.6073 8.84395,-5.04647 12.28762,-5.05447 z" /><path
                   id="path32694"
                   style="display:none;fill:#3943c4;fill-opacity:1"
                   d="m 604.01027,183.70459 -1.83814,0.91984 c -1.31268,0.65671 -2.07238,1.2458 -2.65771,2.06086 -0.97754,1.3612 -1.77566,3.91684 -1.56012,4.99453 0.085,0.42516 0.0791,1.49354 -0.0129,2.37401 -0.19951,1.90887 -0.19618,1.90671 -3.94704,2.3518 -5.02289,0.59603 -11.0704,1.95626 -17.17466,3.86281 -9.5494,2.98258 -12.12866,5.12195 -12.72377,10.55594 -0.26044,2.37805 1.177,4.25885 3.63026,4.7501 0.81256,0.16271 1.01779,0.72551 0.786,2.15543 l -0.16743,1.03197 -5.55211,0.1323 c -5.4696,0.13032 -5.57089,0.14337 -6.78977,0.85989 -1.50552,0.88502 -2.68607,2.2671 -3.09077,3.61787 -0.1661,0.5544 -0.30179,1.92935 -0.30179,3.05563 0,5.20631 2.10525,8.58732 6.82439,10.96005 1.99696,1.00406 4.84888,1.87682 7.46311,2.28358 0.65484,0.10189 1.32726,0.29525 1.49448,0.42995 0.21796,0.17557 0.31449,3.04005 0.34107,10.11773 0.033,8.78729 0.0939,10.11045 0.55242,12.03027 1.52734,6.39474 6.7677,11.68367 13.12375,13.24519 1.98512,0.48774 3.31224,0.51242 28.30059,0.53072 25.42075,0.0186 26.28057,0.003 28.29492,-0.51212 3.50943,-0.89756 5.77114,-2.18615 8.33592,-4.75061 2.74404,-2.74368 4.24238,-5.41011 5.0214,-8.93331 0.45423,-2.05428 0.51478,-3.41696 0.52348,-11.8463 0.005,-5.23875 0.0972,-9.65733 0.20413,-9.81904 0.10691,-0.1617 0.78961,-0.37895 1.51722,-0.48318 0.7276,-0.10424 2.38061,-0.48461 3.67367,-0.84491 7.47147,-2.08182 10.75213,-5.97319 10.74353,-12.74444 -0.004,-3.29379 -1.31193,-5.43219 -4.09845,-6.70243 -0.90724,-0.41356 -1.79704,-0.48334 -6.23115,-0.48834 -3.6635,-0.004 -5.26523,-0.0986 -5.4901,-0.3235 -0.17463,-0.17463 -0.31729,-0.8866 -0.31729,-1.58233 0,-1.13628 0.0673,-1.27914 0.66145,-1.4025 0.36381,-0.0755 0.97726,-0.20363 1.36323,-0.28473 1.01808,-0.21391 2.13089,-1.54043 2.4169,-2.88148 0.52597,-2.4661 -0.43541,-5.30438 -2.54196,-7.50394 -1.01197,-1.05665 -1.77264,-1.51417 -4.16305,-2.50527 -6.90373,-2.86239 -17.02803,-5.42025 -24.3272,-6.1464 -2.86056,-0.28459 -2.77812,-0.17327 -2.77812,-3.75997 0,-2.52888 -0.0939,-3.27527 -0.52245,-4.15789 -0.88775,-1.82849 -2.11974,-3.08081 -3.82406,-3.8871 l -1.60662,-0.76016 h -6.77736 z m 6.25853,3.83129 c 3.28539,-0.003 6.3801,0.0788 6.8771,0.18087 0.49749,0.10219 1.28652,0.58018 1.75545,1.0635 0.80514,0.82987 0.86082,1.01499 1.0113,3.39101 0.0876,1.38245 0.0704,2.65248 -0.0377,2.82205 -0.24978,0.39184 -17.68236,0.61773 -18.06556,0.23409 -0.3869,-0.38734 -0.30054,-4.27871 0.1173,-5.27874 0.20284,-0.48546 0.81894,-1.2255 1.36891,-1.64486 l 0.99994,-0.76275 z m 0.72864,11.63702 c 4.58668,0.0234 9.24783,0.22954 12.40027,0.6103 8.73266,1.05474 15.88198,2.58124 22.17178,4.73356 6.38759,2.18578 8.26915,3.6154 8.06049,6.12521 l -0.0811,0.97668 -42.76793,0.0667 c -38.80152,0.0607 -42.78236,0.028 -42.92813,-0.35191 -0.21434,-0.55856 0.0524,-1.6141 0.7121,-2.81792 0.41433,-0.75608 1.00858,-1.22728 2.54558,-2.01796 5.27097,-2.71153 16.30102,-5.41205 27.93422,-6.83886 2.85418,-0.35007 7.36608,-0.5092 11.95276,-0.48576 z m 37.75428,16.43724 c 0.39437,0.15133 0.4315,2.06656 0.4315,22.16505 0,20.65314 -0.03,22.10407 -0.49196,23.71949 -1.41495,4.9478 -4.99443,8.64163 -9.86503,10.18025 l -2.10582,0.6656 -25.98187,-0.0238 c -21.0175,-0.0191 -26.23185,-0.0926 -27.29188,-0.38344 -4.45625,-1.22249 -8.38109,-4.62505 -9.93944,-8.61653 -0.63569,-1.62821 -0.92442,-2.89279 -1.08004,-4.73511 -0.11678,-1.38245 -0.21772,-11.52835 -0.22479,-22.54643 -0.0124,-19.26705 0.006,-20.0426 0.47904,-20.29592 0.54268,-0.29044 75.31913,-0.41743 76.07029,-0.12919 z m 10.1322,7.03368 4.89582,0.0868 0.8015,0.89762 c 0.79064,0.88539 0.7997,0.93017 0.68885,3.3073 -0.12422,2.66385 -0.44649,3.50917 -1.99057,5.21828 -1.37931,1.52673 -2.72457,2.20966 -6.1588,3.12591 -3.14885,0.84012 -3.75775,0.9355 -4.05712,0.63614 -0.097,-0.097 -0.17621,-3.00986 -0.17621,-6.47299 0,-6.10708 0.0164,-6.30559 0.55035,-6.59133 0.36556,-0.19565 2.1951,-0.26544 5.44618,-0.20774 z m -95.98432,0.005 c 4.36408,-0.0716 5.04223,-0.0267 5.42654,0.3576 0.38572,0.38572 0.43442,1.16849 0.40101,6.43165 -0.0227,3.57104 -0.14599,6.12603 -0.30489,6.32312 -0.36085,0.44755 -0.6877,0.40929 -3.95015,-0.46612 -3.62351,-0.97229 -4.59961,-1.48747 -6.25905,-3.30316 -1.62,-1.77255 -1.98515,-2.90261 -1.85622,-5.74176 0.083,-1.82821 0.1745,-2.13661 0.82476,-2.78743 l 0.73122,-0.73226 z" /><path
                   style="display:none;fill:#3943c4;fill-opacity:1"
                   d="m 591.62422,252.90538 c -0.69603,-0.69603 -0.80055,-1.21965 -0.39479,-1.97783 0.26435,-0.49395 2.95457,-2.64214 9.88372,-7.89235 2.02382,-1.53345 2.24875,-2.00296 1.32765,-2.77137 -0.39534,-0.3298 -1.20216,-1.02309 -1.79293,-1.54064 -0.59077,-0.51754 -1.71026,-1.39901 -2.48777,-1.9588 -0.7775,-0.55979 -2.26578,-1.71641 -3.30729,-2.57025 -1.04151,-0.85385 -2.34014,-1.91387 -2.88584,-2.35562 -1.16524,-0.94325 -1.32604,-2.02694 -0.43323,-2.91974 0.78774,-0.78775 2.08782,-0.5191 3.60293,0.74452 3.17622,2.64898 7.27692,5.89023 10.1859,8.05109 3.91284,2.90653 3.86997,3.82326 -0.32487,6.94764 -0.80036,0.59613 -2.34818,1.80528 -3.43958,2.68701 -1.09141,0.88173 -2.52016,1.987 -3.175,2.45617 -0.65485,0.46917 -2.01485,1.50476 -3.02223,2.30132 -2.04117,1.61399 -2.76648,1.76905 -3.73667,0.79885 z"
                   id="path32688" /><path
                   style="display:none;fill:#3943c4;fill-opacity:1"
                   d="m 612.42837,255.07523 c -1.41013,-0.36753 -1.5624,-2.40452 -0.2357,-3.15302 0.74021,-0.4176 13.5976,-0.55615 14.96592,-0.16126 1.31533,0.37959 1.79182,1.66768 1.01191,2.73548 -0.35134,0.48104 -0.83791,0.52198 -7.67613,0.64589 -4.01556,0.0728 -7.64526,0.0426 -8.066,-0.0671 z"
                   id="path32687" /><path
                   style="display:none;fill:#3943c4;fill-opacity:1"
                   d="m 719.03953,361.34532 c -2.49704,-0.67101 -5.02061,-2.52265 -5.9882,-4.39376 -1.34331,-2.59769 -1.42655,-3.27716 -1.42655,-11.64507 0,-4.94898 -0.1026,-8.10519 -0.27389,-8.42525 -0.23244,-0.43432 -0.56659,-0.51177 -2.20795,-0.51177 -2.19526,0 -2.80983,-0.38621 -2.80983,-1.76576 0,-1.17799 0.66299,-1.59936 2.71125,-1.72318 0.98186,-0.0594 1.92527,-0.24799 2.09646,-0.41918 0.19101,-0.19102 0.37017,-1.6977 0.46376,-3.90016 0.16,-3.76546 0.26003,-4.0451 1.47541,-4.12439 1.10093,-0.0718 1.60171,0.0749 2.05052,0.60082 0.39065,0.45775 0.46302,1.09348 0.46302,4.06729 0,3.13547 0.0511,3.53779 0.46302,3.64295 0.25466,0.065 2.1718,0.12808 4.26032,0.14012 2.46161,0.0142 3.9274,0.12988 4.16718,0.32888 0.50101,0.4158 0.47076,2.2202 -0.0459,2.73684 -0.33649,0.33649 -1.08998,0.41577 -3.95152,0.41577 -1.94466,0 -3.84116,0.11612 -4.21444,0.25804 l -0.67868,0.25803 0.0115,7.34874 c 0.006,4.0418 0.11173,7.86738 0.2342,8.50129 0.30185,1.56245 1.48796,3.16821 3.05277,4.13285 1.23125,0.75902 1.44216,0.80001 4.11649,0.80001 3.27554,0 3.69752,0.19927 3.69752,1.74609 0,1.22157 -0.51744,1.63351 -2.59271,2.06406 -1.84019,0.38179 -3.29982,0.34345 -5.07379,-0.13326 z"
                   id="path32686" /><path
                   id="path32685"
                   style="display:none;fill:#3943c4;fill-opacity:1"
                   d="m 685.48797,331.73535 c -1.59482,-0.0262 -3.23054,0.13546 -4.55476,0.49041 -3.59227,0.96288 -7.52489,4.19421 -9.2108,7.56801 -2.41411,4.83107 -2.07027,11.17117 0.83716,15.4249 1.63603,2.3936 4.24446,4.49019 6.69985,5.38572 1.09989,0.40115 2.43224,0.82069 2.96105,0.93276 0.52881,0.11158 2.0928,0.16522 3.47524,0.11782 6.85081,-0.23491 12.22856,-4.45342 14.1609,-11.10836 0.67742,-2.33302 0.43299,-6.82694 -0.49558,-9.11211 -1.0522,-2.58944 -1.81671,-3.72499 -3.78375,-5.62136 -1.9632,-1.89267 -2.93547,-2.47169 -5.78052,-3.44217 -1.16003,-0.3957 -2.71396,-0.60946 -4.30879,-0.63562 z m 0.40825,3.9517 c 1.5824,-0.0112 2.63871,0.36046 4.63744,1.40611 2.31687,1.2121 3.82706,2.89697 4.8302,5.38882 0.67023,1.66489 0.78159,2.2881 0.77359,4.33204 -0.008,2.01795 -0.12763,2.67469 -0.77514,4.24005 -0.95221,2.30198 -3.28545,4.73052 -5.59346,5.82238 -1.22525,0.57964 -2.02215,0.75318 -3.8039,0.82838 -4.90139,0.20681 -8.4686,-1.81841 -10.55853,-5.99395 -1.73092,-3.45828 -1.72455,-6.82973 0.0191,-10.1012 1.8788,-3.52499 4.59188,-5.34046 8.65839,-5.79447 0.69882,-0.078 1.28482,-0.12444 1.81229,-0.12816 z" /><path
                   style="display:none;fill:#1d273c;fill-opacity:1"
                   d="m 597.14518,361.45495 c -1.11492,-0.53902 -1.18729,-1.24554 -1.08254,-10.56842 0.10881,-9.68509 0.13497,-9.86093 1.96816,-13.22909 1.63736,-3.00836 5.47424,-5.46964 9.44831,-6.06089 6.02877,-0.89693 11.50864,1.63656 14.11294,6.5248 1.55597,2.92052 1.6619,3.78027 1.6619,13.48794 0,9.95866 0.0321,9.7997 -2.03311,10.0767 -0.94016,0.1261 -1.20158,0.0478 -1.78323,-0.53381 l -0.68158,-0.68157 v -8.15852 c 0,-6.49793 -0.0832,-8.4795 -0.4085,-9.73547 -1.32116,-5.10008 -6.28043,-7.71517 -11.59366,-6.11348 -1.24141,0.37422 -1.88371,0.79456 -3.21684,2.10519 -1.43317,1.40898 -1.74298,1.89082 -2.21919,3.45141 -0.51062,1.67337 -0.55347,2.44828 -0.55347,10.00837 v 8.19457 l -0.7734,0.77339 c -0.81723,0.81724 -1.78259,0.9729 -2.84579,0.45888 z"
                   id="path32683" /><path
                   style="display:none;fill:#1d273c;fill-opacity:1"
                   d="m 536.83153,361.45995 c -1.081,-0.52343 -1.15487,-1.17988 -1.15007,-10.22019 0.005,-9.58565 0.17964,-11.12249 1.58929,-13.99322 2.02591,-4.12572 6.97612,-6.47014 11.90589,-5.63862 2.42988,0.40985 3.53921,1.1531 3.6473,2.44369 0.0961,1.14693 -0.24989,1.89134 -1.15441,2.484 -0.6099,0.39962 -0.74547,0.39718 -1.8738,-0.0337 -2.77588,-1.06011 -6.25909,0.0433 -7.79866,2.4704 -1.46424,2.30838 -1.55736,3.04369 -1.56132,12.32797 -0.002,4.66663 -0.0766,8.75745 -0.16592,9.09069 -0.29755,1.1108 -2.15764,1.68912 -3.4383,1.06902 z"
                   id="path32682" /><path
                   id="path32681"
                   style="display:none;fill:#1d273c;fill-opacity:1;stroke:none"
                   d="m 573.7532,331.35605 c -3.52776,-0.14535 -7.01276,0.94077 -10.22005,3.23442 -2.2081,1.5791 -4.43564,5.01514 -5.19607,8.01554 -0.89645,3.53713 -0.79683,5.9224 0.39533,9.4759 1.51666,4.52077 5.73535,8.29018 10.68203,9.54361 1.96248,0.49727 6.23102,0.36076 8.33128,-0.26614 3.93589,-1.17481 7.67195,-4.29297 9.33638,-7.79229 1.77295,-3.72748 2.09253,-6.98704 1.07694,-10.98021 -1.01898,-4.00648 -4.23288,-7.8475 -8.06101,-9.63455 -2.09642,-0.97865 -4.22818,-1.50908 -6.34483,-1.59628 z m -0.72296,4.57284 c 2.90146,-0.0273 5.79649,1.0898 8.00468,3.29799 5.1647,5.16469 3.43745,14.13178 -3.32227,17.24753 -2.41731,1.11421 -5.6592,1.36228 -7.79539,0.59635 -1.76511,-0.63288 -3.85571,-1.9904 -4.90306,-3.18327 -4.01397,-4.57166 -3.25812,-12.25141 1.55442,-15.79284 1.9444,-1.43083 4.20494,-2.14452 6.46162,-2.16576 z" /><path
                   style="display:none;fill:#1d273c;fill-opacity:1"
                   d="m 511.7294,361.76504 c -7.62063,-1.51522 -12.94452,-8.22253 -12.49224,-15.73835 0.25939,-4.31032 1.82155,-7.65322 4.90774,-10.50217 2.63559,-2.43299 7.11561,-4.20459 10.55258,-4.17297 2.11688,0.0195 5.24661,0.77433 7.18742,1.73354 2.12016,1.04784 4.79613,3.39128 4.79613,4.20015 0,0.71299 -2.0055,2.52374 -2.79517,2.52374 -0.39742,0 -1.10727,-0.41575 -1.79987,-1.05416 -2.29358,-2.11415 -5.5198,-3.09169 -8.71026,-2.6392 -3.53775,0.50174 -6.47919,2.49586 -8.06202,5.46557 -1.68393,3.15936 -1.75749,6.57451 -0.21113,9.80123 1.94437,4.05722 6.00516,6.39065 10.60743,6.0953 2.31831,-0.14878 4.26885,-0.99707 6.16511,-2.68122 0.7612,-0.67605 1.62512,-1.22918 1.91984,-1.22918 0.65098,0 2.55181,1.48031 2.76554,2.15371 0.5377,1.69414 -4.12516,5.05095 -8.21384,5.91319 -1.98016,0.41758 -4.88609,0.47504 -6.61726,0.13082 z"
                   id="path32679" /><path
                   id="path32678"
                   style="display:none;fill:#3943c4;fill-opacity:1"
                   d="m 648.61788,331.68212 c -0.49282,-0.0138 -0.99967,0.005 -1.55133,0.0517 -4.19292,0.35482 -7.24562,1.80752 -10.01179,4.76457 -1.9109,2.04276 -2.79421,3.66303 -3.49953,6.42079 -0.475,1.85723 -0.51159,3.02842 -0.51159,16.26413 0,9.58584 0.0922,14.43529 0.28163,14.78928 0.15503,0.28969 0.54199,0.63155 0.8599,0.75964 0.76798,0.30947 0.77267,0.30948 1.7079,-0.0165 0.44661,-0.15569 0.91117,-0.4831 1.03198,-0.7276 0.12081,-0.24449 0.2262,-4.00873 0.2341,-8.36487 0.0109,-5.99411 0.0927,-7.94633 0.33744,-8.02793 0.17785,-0.0593 0.78198,0.30586 1.34204,0.81184 1.54792,1.39845 3.11934,2.21284 5.43326,2.81533 3.49107,0.90899 6.25827,0.68387 9.82007,-0.79892 3.36434,-1.40057 6.76445,-5.04956 7.78557,-8.35556 0.97095,-3.14357 1.11941,-4.85418 0.6687,-7.70134 -0.48163,-3.04244 -1.36419,-4.99229 -3.38016,-7.46828 -1.64117,-2.01566 -3.19059,-3.1259 -5.67252,-4.06435 -2.04636,-0.77379 -3.3972,-1.11044 -4.87567,-1.15187 z m -0.75758,4.29018 c 2.85601,0 3.13863,0.049 4.60851,0.79375 3.42446,1.7351 5.31967,4.30078 6.00376,8.1287 0.40457,2.26381 0.0973,4.46181 -0.94206,6.73913 -0.8849,1.939 -2.4163,3.52435 -4.75268,4.92063 -1.74623,1.04359 -1.93807,1.09593 -4.23333,1.15703 -2.846,0.0757 -3.4714,-0.0614 -5.71335,-1.25522 -2.25395,-1.20017 -3.1957,-2.19286 -4.41007,-4.64984 -0.86542,-1.75099 -1.02591,-2.35478 -1.10845,-4.16461 -0.17389,-3.81255 0.85013,-6.66188 3.22667,-8.97671 0.74721,-0.7278 2.01559,-1.63102 2.81843,-2.00763 1.30527,-0.61225 1.78182,-0.68523 4.50257,-0.68523 z" /></g></g></g></g></g></g></g></svg>
